# xmcd
#
# Track frame offsets: 
#        150
#        582
#        15722
#        31025
#
# Disc length: 437 seconds
#
# Revision: 0
# Processed by: cddbd v1.4PL0 Copyright (c) Steve Scherf et al.
# Submitted via: ExactAudioCopy v0.95a4
#
DISCID=1c01b304
DTITLE=Kelly Price - In Love At Christmas (featuring Mary Mary)
DYEAR=2001
DGENRE=R&B
TTITLE0=Kelly Price X-mas I.D.
TTITLE1=In Love At Christmas (Radio Edit)
TTITLE2=In Love At Christmas (Instrumental)
TTITLE3=In Love At Christmas (Call Out Hook)
EXTD=
EXTT0=
EXTT1=
EXTT2=
EXTT3=
PLAYORDER=
